<svg xmlns="http://www.w3.org/2000/svg" viewBox="0 0 60.24 60.24"><defs><style>.cls-1{fill:#01275e;}.cls-2{fill:#fff;fill-rule:evenodd;}</style></defs><g id="Layer_2" data-name="Layer 2"><g id="Layer_1-2" data-name="Layer 1"><circle class="cls-1" cx="30.12" cy="30.12" r="30.12"/><path class="cls-2" d="M25.65,30.34a2.21,2.21,0,1,0,3.2-3L16.71,14.54a2.2,2.2,0,0,0-3.2,3Z"/><path class="cls-2" d="M32.6,36.32a1.25,1.25,0,0,0,1.82-1.72l-6.88-7.23a1.25,1.25,0,1,0-1.81,1.72Z"/><path class="cls-2" d="M35.61,24.84,33.85,32a5.33,5.33,0,0,1-3.9,3.9l-7.12,1.75A35.32,35.32,0,0,0,34,45.38a64.25,64.25,0,0,0,11.36,3.35,1.14,1.14,0,0,0,1.33-1.34A63.75,63.75,0,0,0,43.37,36,35.29,35.29,0,0,0,35.61,24.84Z"/></g></g></svg>