<svg xmlns="http://www.w3.org/2000/svg" viewBox="0 0 61.89 61.89"><defs><style>.cls-1{fill:#01275e;}.cls-2,.cls-3{fill:#fff;}.cls-2{fill-rule:evenodd;}</style></defs><g id="Layer_2" data-name="Layer 2"><g id="Layer_1-2" data-name="Layer 1"><circle class="cls-1" cx="30.94" cy="30.94" r="30.94"/><path class="cls-2" d="M27.29,24.68c-5.49,0-18,24.77-.38,24.77S32.77,24.68,27.29,24.68Z"/><path class="cls-3" d="M37.7,45.42a10.35,10.35,0,0,1-2.16-.21l.69-2.92-.34,1.46.33-1.46s2.81.61,4.67-.75a5.15,5.15,0,0,0,1.82-3.92c.31-3.58-1.91-6.3-4.27-9.18-2.15-2.63-4.38-5.36-4.22-8.72l3,.13c-.1,2.22,1.6,4.3,3.56,6.69,2.5,3.07,5.34,6.55,4.93,11.34A7.94,7.94,0,0,1,42.64,44,8.37,8.37,0,0,1,37.7,45.42Z"/><path class="cls-2" d="M46.86,15a1.72,1.72,0,0,0-1.42-2.46c-2.26-.18-5.59-.19-7.55.94-3.17,1.83-2.18,6.31-2.18,6.31s3.39,3.11,6.56,1.28C44.23,19.93,45.88,17,46.86,15Z"/><path class="cls-2" d="M24.57,15A1.72,1.72,0,0,1,26,12.53c2.25-.18,5.59-.19,7.55.94,3.17,1.83,2.17,6.31,2.17,6.31s-3.38,3.11-6.55,1.28C27.2,19.93,25.54,17,24.57,15Z"/></g></g></svg>