<svg xmlns="http://www.w3.org/2000/svg" viewBox="0 0 61.89 61.89"><defs><style>.cls-1{fill:#01275e;}.cls-2{fill:#fff;}</style></defs><g id="Layer_2" data-name="Layer 2"><g id="Layer_1-2" data-name="Layer 1"><circle class="cls-1" cx="30.94" cy="30.94" r="30.94"/><path class="cls-2" d="M14.19,17.32a3.09,3.09,0,0,1,1-2.17,2.91,2.91,0,0,1,4.36,0L46.76,42.39a3.11,3.11,0,0,1,1,2.16,3.27,3.27,0,0,1-3.15,3.15,3,3,0,0,1-2.18-.94L15.15,19.52A3,3,0,0,1,14.19,17.32Z"/><path class="cls-2" d="M17.32,47.72a3.09,3.09,0,0,1-2.17-1,2.91,2.91,0,0,1,0-4.36L42.39,15.15a3.11,3.11,0,0,1,2.16-1,3.27,3.27,0,0,1,3.15,3.15,3,3,0,0,1-.94,2.18L19.52,46.76A3,3,0,0,1,17.32,47.72Z"/></g></g></svg>