<svg xmlns="http://www.w3.org/2000/svg" viewBox="0 0 61.89 61.89"><defs><style>.cls-1,.cls-3{fill:#e077a3;}.cls-2{fill:#fff;}.cls-2,.cls-3{fill-rule:evenodd;}</style></defs><g id="Layer_2" data-name="Layer 2"><g id="Layer_1-2" data-name="Layer 1"><circle class="cls-1" cx="30.94" cy="30.94" r="30.94"/><polygon class="cls-2" points="30.95 10.05 14.3 23.45 14.3 48.53 47.59 48.53 47.59 23.45 30.95 10.05"/><path class="cls-3" d="M19.69,28.74s1.71,5.69,4.95,7.14,7.06-1.76,7.06-1.76-.15-5-3.38-6.43S19.69,28.74,19.69,28.74Z"/><path class="cls-3" d="M41,24.82s.42,5.93-2.09,8.44-7.21.86-7.21.86-1.64-4.71.86-7.21S41,24.82,41,24.82Z"/><path class="cls-1" d="M31.7,45.58a1.5,1.5,0,0,1-1.5-1.5V34.31a1.5,1.5,0,0,1,3,0v9.77A1.5,1.5,0,0,1,31.7,45.58Z"/></g></g></svg>