<svg xmlns="http://www.w3.org/2000/svg" viewBox="0 0 60.24 60.24"><defs><style>.cls-1{fill:#01275e;}.cls-2{fill:#fff;}</style></defs><g id="Layer_2" data-name="Layer 2"><g id="Layer_1-2" data-name="Layer 1"><circle class="cls-1" cx="30.12" cy="30.12" r="30.12"/><path class="cls-2" d="M32.2,13a2.87,2.87,0,0,1,.87,2.08,3,3,0,0,1-5.9,0A2.87,2.87,0,0,1,28,13a2.92,2.92,0,0,1,4.16,0Zm-3.71,9.64a2.27,2.27,0,0,1,3.91,1.65v19.9a2.23,2.23,0,0,1-.63,1.63,2.29,2.29,0,0,1-3.93-1.63V24.33A2.17,2.17,0,0,1,28.49,22.68Z"/></g></g></svg>