<svg xmlns="http://www.w3.org/2000/svg" viewBox="0 0 61.89 61.89"><defs><style>.cls-1{fill:#01275e;}.cls-2{fill:#fff;}</style></defs><g id="Layer_2" data-name="Layer 2"><g id="Layer_1-2" data-name="Layer 1"><circle class="cls-1" cx="30.94" cy="30.94" r="30.94"/><path class="cls-2" d="M9.46,33.15a3.06,3.06,0,0,1-.84-2.21,2.9,2.9,0,0,1,3.08-3.08H50.22a3,3,0,0,1,2.21.85,3,3,0,0,1,.87,2.23A3,3,0,0,1,50.22,34H11.7A3,3,0,0,1,9.46,33.15Z"/><path class="cls-2" d="M33.17,52.44a3.08,3.08,0,0,1-5.3-2.24V11.69a3.06,3.06,0,0,1,.85-2.21,3.25,3.25,0,0,1,4.45,0,3,3,0,0,1,.88,2.21V50.2A3,3,0,0,1,33.17,52.44Z"/></g></g></svg>