<svg xmlns="http://www.w3.org/2000/svg" viewBox="0 0 61.89 61.89"><defs><style>.cls-1{fill:#01275e;}.cls-2{fill:#fff;fill-rule:evenodd;}</style></defs><g id="Layer_2" data-name="Layer 2"><g id="Layer_1-2" data-name="Layer 1"><circle class="cls-1" cx="30.94" cy="30.94" r="30.94"/><path class="cls-2" d="M51.26,24.82l-7.47-1.14a2.46,2.46,0,0,1-2.07-2.61l.55-7.52a2.46,2.46,0,0,0-4.12-2l-5.54,5.13a2.45,2.45,0,0,1-3.33,0l-5.55-5.13a2.46,2.46,0,0,0-4.11,2l.55,7.52a2.46,2.46,0,0,1-2.07,2.61l-7.47,1.14a2.45,2.45,0,0,0-1,4.45l6.23,4.26a2.47,2.47,0,0,1,.74,3.25l-3.76,6.55a2.44,2.44,0,0,0,2.84,3.56l7.22-2.21a2.46,2.46,0,0,1,3,1.45l2.77,7a2.46,2.46,0,0,0,4.57,0l2.77-7a2.46,2.46,0,0,1,3-1.45l7.22,2.21a2.44,2.44,0,0,0,2.84-3.56L45.3,36.78A2.46,2.46,0,0,1,46,33.53l6.23-4.26A2.45,2.45,0,0,0,51.26,24.82ZM30.94,41.38a9.58,9.58,0,1,1,9.58-9.58A9.58,9.58,0,0,1,30.94,41.38Z"/></g></g></svg>