<svg xmlns="http://www.w3.org/2000/svg" viewBox="0 0 61.89 61.89"><defs><style>.cls-1,.cls-3{fill:#e077a3;}.cls-2{fill:#fff;}.cls-3{font-size:17.09px;font-family:BrandonGrotesque-Bold, Brandon Grotesque;font-weight:700;}</style></defs><g id="Layer_2" data-name="Layer 2"><g id="Layer_1-2" data-name="Layer 1"><circle class="cls-1" cx="30.94" cy="30.94" r="30.94"/><rect class="cls-2" x="14.21" y="18.71" width="33.48" height="28.06" rx="2.73"/><path class="cls-2" d="M23.25,25.6a4.24,4.24,0,0,1-3-1.32,1.5,1.5,0,0,1,2.12-2.12,1.32,1.32,0,0,0,.91.44c1,0,2-1.58,2-3.69s-1.07-3.69-2-3.69-1.84,1.4-1.84,3.33a1.5,1.5,0,0,1-3,0c0-3.73,2-6.33,4.84-6.33s5,2.94,5,6.69S26.07,25.6,23.25,25.6Z"/><path class="cls-2" d="M37.92,25.6a4.2,4.2,0,0,1-3-1.32A1.5,1.5,0,1,1,37,22.16a1.34,1.34,0,0,0,.91.44c1,0,2-1.58,2-3.69s-1.07-3.69-2-3.69-1.84,1.4-1.84,3.33a1.5,1.5,0,0,1-3,0c0-3.73,2-6.33,4.84-6.33s5,2.94,5,6.69S40.74,25.6,37.92,25.6Z"/><text class="cls-3" transform="translate(22.55 41.04)">01</text><path class="cls-1" d="M23.25,25.6a4.24,4.24,0,0,1-3-1.32,1.5,1.5,0,0,1,2.12-2.12,1.32,1.32,0,0,0,.91.44c1,0,2-1.58,2-3.69a1.5,1.5,0,1,1,3,0C28.28,22.66,26.07,25.6,23.25,25.6Z"/><path class="cls-2" d="M26.78,20.41a1.5,1.5,0,0,1-1.5-1.5c0-2.11-1.07-3.69-2-3.69a1.5,1.5,0,0,1,0-3c2.82,0,5,2.94,5,6.69A1.5,1.5,0,0,1,26.78,20.41Z"/><path class="cls-1" d="M37.92,25.6a4.2,4.2,0,0,1-3-1.32A1.5,1.5,0,1,1,37,22.16a1.34,1.34,0,0,0,.91.44c1,0,2-1.58,2-3.69a1.5,1.5,0,1,1,3,0C43,22.66,40.74,25.6,37.92,25.6Z"/><path class="cls-2" d="M41.45,20.41a1.5,1.5,0,0,1-1.5-1.5c0-2.11-1.07-3.69-2-3.69a1.5,1.5,0,0,1,0-3c2.82,0,5,2.94,5,6.69A1.5,1.5,0,0,1,41.45,20.41Z"/></g></g></svg>