<svg xmlns="http://www.w3.org/2000/svg" viewBox="0 0 54.82 54.82"><defs><style>.cls-1{fill:#003866;}.cls-2{fill:#fff;}</style></defs><g id="Layer_2" data-name="Layer 2"><g id="Layer_1-2" data-name="Layer 1"><circle class="cls-1" cx="27.41" cy="27.41" r="27.41"/><path class="cls-2" d="M28.67,14.8V26.07H39.45a1.65,1.65,0,0,1,1.65,1.65h0a1.65,1.65,0,0,1-1.65,1.65H28.67V40.76A1.65,1.65,0,0,1,27,42.41H26.8a1.65,1.65,0,0,1-1.65-1.65V29.37H14.37a1.65,1.65,0,0,1-1.65-1.65h0a1.65,1.65,0,0,1,1.65-1.65H25.15V14.8a1.65,1.65,0,0,1,1.65-1.65H27A1.65,1.65,0,0,1,28.67,14.8Z"/></g></g></svg>